<?xml version="1.0" encoding="utf-8"?>
<!-- Generator: Adobe Illustrator 21.1.0, SVG Export Plug-In . SVG Version: 6.00 Build 0)  -->
<!DOCTYPE svg PUBLIC "-//W3C//DTD SVG 1.1//EN" "http://www.w3.org/Graphics/SVG/1.1/DTD/svg11.dtd">
<svg version="1.1" id="Ebene_1" xmlns="http://www.w3.org/2000/svg" xmlns:xlink="http://www.w3.org/1999/xlink" x="0px" y="0px"
	 viewBox="0 0 70.9 25.5" style="enable-background:new 0 0 70.9 25.5;" xml:space="preserve">
<style type="text/css">
	.st0{fill:#FFFFFF;}
	.st1{fill:#1e1e25;}
	.st2{fill:#D19800;}
</style>
<rect y="0" class="st0" width="70.9" height="25.5"/>
<g>
	<g>
		<path class="st1" d="M26.5,4.5h1.3c0.5,0,0.9,0.1,1.2,0.4c0.3,0.3,0.5,0.8,0.5,1.5c0,0.5-0.1,0.9-0.3,1.3C29,8,28.8,8.2,28.5,8.3
			l1.3,3.6h-1l-1.3-3.6v3.6h-1V4.5L26.5,4.5z M27.5,7.7c0.4,0,0.7-0.1,0.8-0.3c0.2-0.2,0.2-0.5,0.2-0.9c0-0.2,0-0.4-0.1-0.6
			c0-0.2-0.1-0.3-0.2-0.4S28,5.3,27.9,5.3c-0.1,0-0.2-0.1-0.4-0.1h-0.2v2.5H27.5z"/>
		<polygon class="st1" points="30.6,4.5 31.6,4.5 31.6,11.8 30.6,11.8 		"/>
		<polygon class="st1" points="32.7,4.5 35.3,4.5 35.3,5.3 33.7,5.3 33.7,7.6 35.1,7.6 35.1,8.5 33.7,8.5 33.7,11 35.3,11 
			35.3,11.8 32.7,11.8 		"/>
		<polygon class="st1" points="35.6,4.5 38.9,4.5 38.9,5.3 37.7,5.3 37.7,11.8 36.8,11.8 36.8,5.3 35.6,5.3 		"/>
		<path class="st1" d="M39.4,4.5h1.3c1,0,1.6,0.6,1.6,1.9c0,0.5-0.1,0.9-0.2,1.1C42,7.7,41.7,7.9,41.4,8c0.4,0.2,0.7,0.4,0.8,0.6
			c0.1,0.2,0.2,0.6,0.2,1.1c0,1.3-0.6,2-1.7,2h-1.3L39.4,4.5L39.4,4.5z M40.3,7.7c0.4,0,0.6-0.1,0.8-0.3c0.1-0.2,0.2-0.5,0.2-1
			c0-0.8-0.3-1.2-0.9-1.2h-0.1l0,0l0,0V7.7L40.3,7.7z M40.3,11c0.4,0,0.7-0.1,0.8-0.3c0.2-0.2,0.2-0.5,0.2-0.9c0-0.5-0.1-0.8-0.2-1
			c-0.2-0.2-0.4-0.3-0.8-0.3V11L40.3,11z"/>
		<polygon class="st1" points="43.4,4.5 46,4.5 46,5.3 44.4,5.3 44.4,7.6 45.8,7.6 45.8,8.5 44.4,8.5 44.4,11 46,11 46,11.8 
			43.4,11.8 		"/>
		<path class="st1" d="M46.9,4.5h1.3c0.5,0,0.9,0.1,1.2,0.4s0.5,0.8,0.5,1.5c0,0.5-0.1,0.9-0.3,1.3c-0.2,0.3-0.4,0.5-0.8,0.6
			l1.3,3.6h-1l-1.3-3.6v3.6h-1L46.9,4.5L46.9,4.5z M47.9,7.7c0.4,0,0.7-0.1,0.8-0.3C48.9,7.3,49,7,49,6.6c0-0.2,0-0.4-0.1-0.6
			c0-0.2-0.1-0.3-0.2-0.4c-0.1-0.1-0.2-0.2-0.3-0.2S48.2,5.3,48,5.3h-0.2v2.4H47.9z"/>
		<path class="st1" d="M52.7,7.9h1.8v0.3c0,1.4-0.1,2.4-0.4,2.9c-0.2,0.5-0.7,0.8-1.4,0.8s-1.2-0.3-1.5-0.9
			c-0.3-0.6-0.4-1.5-0.4-2.9c0-1.5,0.2-2.6,0.5-3.1s0.8-0.7,1.4-0.7c0.5,0,0.9,0.1,1.1,0.3C54,5,54.3,5.3,54.4,5.9l-0.9,0.4
			c0-0.2-0.1-0.4-0.1-0.5c-0.1-0.1-0.1-0.2-0.2-0.3c-0.1-0.1-0.3-0.2-0.5-0.2c-0.3,0-0.6,0.2-0.7,0.6c-0.1,0.4-0.2,1.2-0.2,2.3
			c0,1.1,0.1,1.9,0.2,2.3c0.1,0.4,0.4,0.6,0.7,0.6s0.5-0.1,0.7-0.4c0.1-0.3,0.2-0.8,0.2-1.4V8.9V8.8h-0.9V7.9L52.7,7.9z"/>
		<polygon class="st1" points="55.4,4.5 58.1,4.5 58.1,5.3 56.4,5.3 56.4,7.6 57.9,7.6 57.9,8.5 56.4,8.5 56.4,11 58.1,11 
			58.1,11.8 55.4,11.8 		"/>
		<path class="st1" d="M59,4.5h1.3c0.5,0,0.9,0.1,1.2,0.4C61.8,5.2,62,5.7,62,6.4c0,0.5-0.1,0.9-0.3,1.3C61.5,8,61.3,8.2,61,8.2
			l1.3,3.6h-1L60,8.2v3.6h-1V4.5L59,4.5z M60,7.7c0.4,0,0.7-0.1,0.8-0.3C60.9,7.3,61,7,61,6.6c0-0.3,0-0.5,0-0.6
			c0-0.2-0.1-0.3-0.2-0.4c-0.1-0.1-0.2-0.2-0.3-0.2s-0.2-0.1-0.4-0.1H60V7.7L60,7.7z"/>
	</g>
	<g>
		<path class="st1" d="M26.9,14.4h0.8l0.6,3c0.1,0.4,0.1,0.7,0.2,1.1s0.1,0.8,0.2,1.2c0-0.1,0-0.1,0-0.1v-0.1l0.1-0.8l0.1-0.8
			l0.1-0.5l0.6-2.9h0.9l0.7,7.3h-0.9l-0.2-2.5c0-0.1,0-0.2,0-0.3c0-0.1,0-0.2,0-0.2v-1v-0.9l0,0v-0.1v0.1c0,0.2,0,0.3-0.1,0.5
			c0,0.1,0,0.2-0.1,0.3l-0.1,0.7v0.3l-0.6,3.2h-0.7L27.9,19c-0.1-0.4-0.1-0.7-0.2-1.1s-0.1-0.8-0.2-1.2l-0.3,5h-0.9L26.9,14.4
			L26.9,14.4z"/>
		<path class="st1" d="M35.7,18.3c0,1.3-0.1,2.2-0.4,2.8c-0.3,0.5-0.8,0.8-1.4,0.8c-0.7,0-1.2-0.3-1.5-0.9S32,19.4,32,18
			c0-1.3,0.1-2.2,0.4-2.8c0.3-0.5,0.8-0.8,1.5-0.8c0.6,0,1.1,0.2,1.4,0.6c0.2,0.3,0.3,0.7,0.4,1.2C35.7,16.7,35.7,17.4,35.7,18.3
			L35.7,18.3z M34.7,18.4c0-1.3-0.1-2.1-0.2-2.5c-0.1-0.4-0.3-0.6-0.7-0.6c-0.3,0-0.6,0.2-0.7,0.6c-0.1,0.4-0.2,1.2-0.2,2.3
			c0,1.1,0.1,1.8,0.2,2.2c0.1,0.4,0.4,0.6,0.7,0.6s0.6-0.2,0.7-0.5C34.6,20,34.7,19.4,34.7,18.4L34.7,18.4z M32.9,12.6
			c0.1,0,0.3,0.1,0.4,0.2c0.1,0.1,0.2,0.2,0.2,0.4c0,0.1-0.1,0.3-0.2,0.4c-0.1,0.1-0.2,0.2-0.4,0.2c-0.1,0-0.3-0.1-0.4-0.2
			c-0.1-0.1-0.2-0.2-0.2-0.4c0-0.1,0.1-0.3,0.2-0.4C32.6,12.7,32.8,12.6,32.9,12.6L32.9,12.6z M34.7,12.6c0.1,0,0.3,0.1,0.4,0.2
			c0.1,0.1,0.2,0.2,0.2,0.4c0,0.1-0.1,0.3-0.2,0.4c-0.1,0.1-0.2,0.2-0.4,0.2c-0.1,0-0.3-0.1-0.4-0.2c-0.1-0.1-0.2-0.2-0.2-0.4
			c0-0.1,0.1-0.3,0.2-0.4C34.5,12.7,34.6,12.6,34.7,12.6L34.7,12.6z"/>
		<path class="st1" d="M36.7,14.4H38c1,0,1.6,0.6,1.6,1.9c0,0.5-0.1,0.9-0.2,1.1c-0.1,0.2-0.4,0.4-0.7,0.5c0.4,0.2,0.7,0.4,0.8,0.6
			s0.2,0.6,0.2,1.1c0,1.3-0.6,2-1.7,2h-1.3L36.7,14.4L36.7,14.4z M37.6,17.7c0.4,0,0.6-0.1,0.8-0.3c0.1-0.2,0.2-0.5,0.2-1
			c0-0.8-0.3-1.2-0.9-1.2h-0.1l0,0l0,0V17.7L37.6,17.7z M37.6,20.9c0.4,0,0.7-0.1,0.8-0.3c0.2-0.2,0.2-0.5,0.2-0.9
			c0-0.5-0.1-0.8-0.2-1c-0.2-0.2-0.4-0.3-0.8-0.3V20.9L37.6,20.9z"/>
		<polygon class="st1" points="40.7,14.4 43.3,14.4 43.3,15.3 41.7,15.3 41.7,17.6 43.1,17.6 43.1,18.4 41.7,18.4 41.7,20.9 
			43.3,20.9 43.3,21.8 40.7,21.8 		"/>
		<polygon class="st1" points="44.2,14.4 45.2,14.4 45.2,20.9 46.8,20.9 46.8,21.8 44.2,21.8 		"/>
		<path class="st1" d="M46.7,14.4h1l0.5,3.4l0.1,0.5c0,0.3,0.1,0.5,0.1,0.7l0.1,0.6c0,0,0,0,0,0.1c0,0,0,0.1,0,0.2v-0.2
			c0-0.4,0.1-0.8,0.1-1.1c0-0.3,0.1-0.7,0.1-1l0.5-3.2H50l0.5,3.1c0.1,0.5,0.1,0.9,0.2,1.3c0.1,0.4,0.1,0.8,0.1,1.1
			c0-0.4,0.1-0.7,0.1-1.1c0-0.3,0.1-0.7,0.1-1l0.1-0.5l0.4-2.9h0.9l-1.3,7.3h-0.8l-0.5-3.2c0,0,0-0.1,0-0.2s0-0.2-0.1-0.4l-0.1-0.7
			c0-0.1,0-0.1,0-0.3c0-0.1,0-0.3,0-0.4v-0.3c0,0.1,0,0.1,0,0.2s0,0.1,0,0.1c0,0.2,0,0.4,0,0.5s0,0.2,0,0.2l-0.1,0.7
			c0,0.2,0,0.3-0.1,0.4c0,0.1,0,0.2,0,0.2l-0.5,3.2h-0.8L46.7,14.4L46.7,14.4z"/>
		<polygon class="st1" points="53,14.4 55.6,14.4 55.6,15.3 54,15.3 54,17.6 55.4,17.6 55.4,18.4 54,18.4 54,20.9 55.6,20.9 
			55.6,21.8 53,21.8 		"/>
		<path class="st1" d="M56.5,14.4h1.3c0.5,0,0.9,0.1,1.2,0.4c0.3,0.3,0.5,0.8,0.5,1.5c0,0.5-0.1,0.9-0.3,1.3
			c-0.2,0.3-0.4,0.5-0.7,0.6l1.3,3.6h-1l-1.3-3.6v3.6h-1V14.4L56.5,14.4z M57.5,17.7c0.4,0,0.7-0.1,0.8-0.3c0.2-0.2,0.2-0.5,0.2-0.9
			c0-0.2,0-0.4-0.1-0.6c0-0.2-0.1-0.3-0.2-0.4c-0.1-0.1-0.2-0.2-0.3-0.2s-0.2-0.1-0.4-0.1h-0.2v2.5H57.5z"/>
		<polygon class="st1" points="60.6,14.4 61.6,14.4 61.6,18 62.9,14.4 63.9,14.4 62.5,18 64,21.8 62.9,21.8 61.6,18 61.6,21.8 
			60.6,21.8 		"/>
		<polygon class="st1" points="64.7,14.4 67.3,14.4 67.3,15.3 65.6,15.3 65.6,17.6 67.1,17.6 67.1,18.4 65.6,18.4 65.6,20.9 
			67.3,20.9 67.3,21.8 64.7,21.8 		"/>
	</g>
</g>
<polygon class="st1" points="8.1,17.2 8.1,21.8 3.6,21.8 3.6,17.2 3.6,12.7 3.6,8.2 3.6,3.7 8.1,3.7 13.4,3.7 13.4,8.2 8.1,8.2 
	8.1,12.7 "/>
<polygon class="st2" points="13.4,13.5 13.4,18 13.4,21.8 8.9,21.8 8.9,18 8.9,13.5 8.9,9 13.4,9 "/>
<polygon class="st2" points="18.8,13.5 18.8,18 18.8,21.8 14.2,21.8 14.2,18 14.2,13.5 14.2,9 14.2,4.5 18.8,4.5 18.8,9 "/>
<polygon class="st2" points="24.1,13.5 24.1,18 24.1,21.8 19.6,21.8 19.6,18 19.6,13.5 19.6,9 19.6,4.5 24.1,4.5 24.1,9 "/>
</svg>
