<?xml version="1.0" encoding="utf-8"?>
<!-- Generator: Adobe Illustrator 21.1.0, SVG Export Plug-In . SVG Version: 6.00 Build 0)  -->
<!DOCTYPE svg PUBLIC "-//W3C//DTD SVG 1.1//EN" "http://www.w3.org/Graphics/SVG/1.1/DTD/svg11.dtd">
<svg version="1.1" id="Ebene_1" xmlns="http://www.w3.org/2000/svg" xmlns:xlink="http://www.w3.org/1999/xlink" x="0px" y="0px"
	 viewBox="0 0 53.9 34" style="enable-background:new 0 0 53.9 34;" xml:space="preserve">
<style type="text/css">
	.st0{fill:none;}
	.st1{fill:#FFFFFF;}
</style>
<rect y="-0.1" class="st0" width="53.9" height="34"/>
<g>
	<path class="st1" d="M45.5,32.9V21.2H20.9v-0.8H27v-8.2H13.8v6.4l-0.2-0.1c-0.3-0.9-1.2-3.2-1.5-3.6c-0.4-0.7-1.4-1.1-2.2-1.2
		c-0.7-0.1-1.2,0-1.7,0.1l-4.1,3.3l-1.1,5.2l1.9,0.6l1.3-3.8l0.6-0.5c-0.2,1.3-0.6,3-0.6,3.3c0,0.4,0.2,1.2,0.3,1.5l-1.1,4.4
		l-2.8,5.1h-2.9v1h54v-1H45.5z M11.4,30.6l0.5,2.3h-0.5V30.6z M14.1,27.2L14.1,27c-1-1.6-2.5-4.1-2.8-4.6c0,0,0-0.1,0-0.1H15
		l0.8,0.4l0.2-0.4h19.4v10.7H14.7L14.1,27.2z M11.4,21.2c0-0.4,0.1-0.8,0.2-1.3l0.4,0.8l1,0.5H11.4z M44.5,28h-8.2v-2.4h8.2V28z
		 M36.3,29h8.2v3.9h-8.2V29z M44.5,24.6h-8.2v-2.4h8.2V24.6z M14.8,13.2H26v6.2H14.8V13.2z M19.9,20.4v0.8h-3.5l0.2-0.3L16,20.4
		H19.9z M6.4,28.3l1.2-4.8l0-0.1c-0.1-0.4-0.3-1.1-0.3-1.4c0-0.3,0.4-2.5,0.8-4.5L8.3,16l-3,2.5l-1.1,3.2l-0.1,0l0.9-4l3.6-2.9
		c0.3-0.1,0.7-0.1,1.2-0.1c0.6,0.1,1.4,0.4,1.6,0.8c0.2,0.2,0.9,2,1.4,3.5l0,0.1l2.5,2l0,0.1h0l-2.6-1.3l-1.8-3.2l-0.2,1.5
		c-0.5,4-0.5,4.1-0.5,4.2c0,0.2,0,0.2,2.9,5l0.5,5.3h-0.7L12,28.6l-2.6-4.5l-1.6,4.7l-3.1,3.8l-0.6-0.2L6.4,28.3z M8.6,29.4l1-2.9
		l0.8,1.3v5.1H5.7L8.6,29.4z"/>
	<rect x="39.8" y="23.1" class="st1" width="1" height="0.7"/>
	<rect x="39.8" y="26.5" class="st1" width="1" height="0.7"/>
	<path class="st1" d="M11.2,13.9c1.3,0,2.3-1,2.3-2.3c0-1.3-1-2.3-2.3-2.3c-1.3,0-2.3,1-2.3,2.3C8.9,12.9,10,13.9,11.2,13.9z
		 M11.2,10.3c0.7,0,1.3,0.6,1.3,1.3s-0.6,1.3-1.3,1.3s-1.3-0.6-1.3-1.3S10.5,10.3,11.2,10.3z"/>
</g>
</svg>
