<?xml version="1.0" encoding="utf-8"?>
<!-- Generator: Adobe Illustrator 21.1.0, SVG Export Plug-In . SVG Version: 6.00 Build 0)  -->
<!DOCTYPE svg PUBLIC "-//W3C//DTD SVG 1.1//EN" "http://www.w3.org/Graphics/SVG/1.1/DTD/svg11.dtd">
<svg version="1.1" id="Ebene_1" xmlns="http://www.w3.org/2000/svg" xmlns:xlink="http://www.w3.org/1999/xlink" x="0px" y="0px"
	 viewBox="0 0 53.9 34" style="enable-background:new 0 0 53.9 34;" xml:space="preserve">
<style type="text/css">
	.st0{fill:none;}
	.st1{fill:#FFFFFF;}
</style>
<rect y="-0.1" class="st0" width="53.9" height="34"/>
<g>
	<path class="st1" d="M45.5,32.9V21.2H20.9v-0.8H27v-8.1H13.8v8.1h6.1v0.8h-9.5v11.7H-0.2v1h54v-1H45.5z M14.8,13.3H26v6.1H14.8
		V13.3z M44.5,28.1h-8.2v-2.4h8.2V28.1z M36.3,29.1h8.2v3.8h-8.2V29.1z M44.5,24.7h-8.2v-2.5h8.2V24.7z M11.4,22.2h23.9v10.7H11.4
		V22.2z"/>
	<rect x="39.8" y="23.2" class="st1" width="1" height="0.7"/>
	<rect x="39.8" y="26.5" class="st1" width="1" height="0.7"/>
</g>
</svg>
