<?xml version="1.0" encoding="utf-8"?>
<!-- Generator: Adobe Illustrator 21.1.0, SVG Export Plug-In . SVG Version: 6.00 Build 0)  -->
<!DOCTYPE svg PUBLIC "-//W3C//DTD SVG 1.1//EN" "http://www.w3.org/Graphics/SVG/1.1/DTD/svg11.dtd">
<svg version="1.1" id="Ebene_1" xmlns="http://www.w3.org/2000/svg" xmlns:xlink="http://www.w3.org/1999/xlink" x="0px" y="0px"
	 viewBox="0 0 53.9 34" style="enable-background:new 0 0 53.9 34;" xml:space="preserve">
<style type="text/css">
	.st0{fill:none;}
	.st1{fill:#FFFFFF;}
</style>
<rect x="0" y="-0.1" class="st0" width="53.9" height="34"/>
<g>
	<path class="st1" d="M44.4,32.9v-0.7h1.5V5.3H26.5v26.9h1.4v0.7h-6.8v-0.7h1.4v-7H9.2v7h1.3v0.7H-0.1v1h54v-1H44.4z M39.6,31.2v-5
		h5.3v5H39.6z M27.5,10.2V9.4h11.1v0.8H27.5z M44.9,14.1h-5.3V9.4h5.3V14.1z M39.6,20.5h5.3v4.7h-5.3V20.5z M44.9,19.5h-5.3v-4.4
		h5.3V19.5z M44.9,8.4h-5.3V6.3h5.3V8.4z M38.6,6.3v2.1H27.5V6.3H38.6z M27.5,11.2h5.1v1.3l-2.5,2.1c-0.2,0.1-0.2,0.4-0.1,0.6
		c0.1,0.2,0.3,0.3,0.5,0.3h5.1c0.2,0,0.4-0.1,0.5-0.3s0-0.4-0.1-0.5l-2.3-2.3v-1.2h5v20H27.5V11.2z M33.2,13.4l1.2,1.2h-2.5
		L33.2,13.4z M28.9,32.2h14.5v0.7H28.9V32.2z M10.2,26.2h11.3v5H10.2V26.2z M11.5,32.2h8.6v0.7h-8.6V32.2z"/>
	<rect x="41.8" y="28.3" class="st1" width="1" height="0.7"/>
	<rect x="15.4" y="28.3" class="st1" width="1" height="0.7"/>
	<path class="st1" d="M20.8,7.9h-9.9v11.9h9.9V7.9z M19.8,18.8h-7.9V8.9h7.9V18.8z"/>
	<path class="st1" d="M13.8,13.6c0.1,0,0.2-0.1,0.2-0.1l1.5-3.3c0.1-0.1,0-0.3-0.1-0.3c-0.1-0.1-0.3,0-0.3,0.1l-1.5,3.3
		c-0.1,0.1,0,0.3,0.1,0.3C13.8,13.6,13.8,13.6,13.8,13.6z"/>
	<path class="st1" d="M14.2,15.3c0,0,0.1,0,0.1,0c0.1,0,0.2-0.1,0.2-0.1l1.6-3.3c0.1-0.1,0-0.3-0.1-0.3c-0.1-0.1-0.3,0-0.3,0.1
		L14.1,15C14,15.1,14.1,15.3,14.2,15.3z"/>
</g>
</svg>
