<?xml version="1.0" encoding="utf-8"?>
<!-- Generator: Adobe Illustrator 21.1.0, SVG Export Plug-In . SVG Version: 6.00 Build 0)  -->
<!DOCTYPE svg PUBLIC "-//W3C//DTD SVG 1.1//EN" "http://www.w3.org/Graphics/SVG/1.1/DTD/svg11.dtd">
<svg version="1.1" id="Ebene_1" xmlns="http://www.w3.org/2000/svg" xmlns:xlink="http://www.w3.org/1999/xlink" x="0px" y="0px"
	 viewBox="0 0 53.9 34" style="enable-background:new 0 0 53.9 34;" xml:space="preserve">
<style type="text/css">
	.st0{fill:none;}
	.st1{fill:#FFFFFF;}
</style>
<rect y="-0.1" class="st0" width="53.9" height="34"/>
<g>
	<path class="st1" d="M44.4,32.9v-0.6h1.5V5.4H26.5v26.9h1.4v0.6h-6.8v-0.5h1.4v-7.1H11l-0.6-2.9l0.4,0.8l1.9-0.6l-0.9-2.7h8.9V8
		h-9.9v8.8l-1-3.2l-0.3-0.1c0,0-1-0.2-2.4-0.2H6.7c-1.4,0-2.4,0.2-2.4,0.2L4,13.6l-2.8,9.1l1.9,0.6l0.4-0.8l-1,5.2h1.9l0.4,5.3h-5v1
		h54v-1H44.4z M11.9,9h7.9v9.9h-7.9V9z M39.6,31.3v-5h5.3v5H39.6z M27.5,10.3V9.6h11.1v0.7H27.5z M44.9,14.2h-5.3V9.6h5.3V14.2z
		 M39.6,20.6h5.3v4.7h-5.3V20.6z M44.9,19.6h-5.3v-4.4h5.3V19.6z M44.9,8.6h-5.3V6.4h5.3V8.6z M38.6,6.4v2.2H27.5V6.4H38.6z
		 M27.5,11.3h5.1v1.4l-2.5,2c-0.2,0.1-0.2,0.4-0.2,0.6c0.1,0.2,0.3,0.3,0.5,0.3h5.1c0.2,0,0.4-0.1,0.5-0.3s0-0.4-0.1-0.5l-2.3-2.3
		v-1.2h5v20H27.5V11.3z M33.2,13.5l1.1,1.1h-2.5L33.2,13.5z M28.9,32.3h14.5v0.6H28.9V32.3z M20.1,32.9h-8.6v-0.5h8.6V32.9z
		 M10.5,32.4v0.5H9.1l0.2-2.1v1.6H10.5z M11.4,27.6l-0.2-1.3h10.3v5.1H10.2v-3.8H11.4z M3.7,26.6l1.4-7.3L4.2,19l-1.6,3l-0.1,0
		l2.4-7.5c0.4-0.1,1-0.1,1.9-0.1h0.5c0.9,0,1.6,0.1,1.9,0.1l2.4,7.5l-0.1,0l-1.6-3l-0.9,0.3l1.4,7.3H8.6l-0.5,6.2H7.2v-6.1H6.7v6.1
		H5.9l-0.5-6.2H3.7z"/>
	<path class="st1" d="M6.9,13.1c1.2,0,2.2-1,2.2-2.2c0-1.2-1-2.2-2.2-2.2s-2.2,1-2.2,2.2C4.7,12.1,5.7,13.1,6.9,13.1z M6.9,9.7
		c0.7,0,1.2,0.5,1.2,1.2s-0.5,1.2-1.2,1.2s-1.2-0.5-1.2-1.2S6.3,9.7,6.9,9.7z"/>
	<rect x="41.8" y="28.4" class="st1" width="1" height="0.7"/>
	<rect x="15.4" y="28.4" class="st1" width="1" height="0.7"/>
	<path class="st1" d="M15.4,9.9c-0.1-0.1-0.3,0-0.3,0.1l-1.5,3.3c-0.1,0.1,0,0.3,0.1,0.3c0,0,0.1,0,0.1,0c0.1,0,0.2-0.1,0.2-0.1
		l1.5-3.3C15.6,10.1,15.6,9.9,15.4,9.9z"/>
	<path class="st1" d="M15.7,11.9l-1.6,3.3c-0.1,0.1,0,0.3,0.1,0.3c0,0,0.1,0,0.1,0c0.1,0,0.2-0.1,0.2-0.1l1.6-3.3
		c0.1-0.1,0-0.3-0.1-0.3C15.9,11.7,15.8,11.8,15.7,11.9z"/>
</g>
</svg>
