<?xml version="1.0" encoding="utf-8"?>
<!-- Generator: Adobe Illustrator 21.1.0, SVG Export Plug-In . SVG Version: 6.00 Build 0)  -->
<!DOCTYPE svg PUBLIC "-//W3C//DTD SVG 1.1//EN" "http://www.w3.org/Graphics/SVG/1.1/DTD/svg11.dtd">
<svg version="1.1" id="Ebene_1" xmlns="http://www.w3.org/2000/svg" xmlns:xlink="http://www.w3.org/1999/xlink" x="0px" y="0px"
	 viewBox="0 0 53.9 34" style="enable-background:new 0 0 53.9 34;" xml:space="preserve">
<style type="text/css">
	.st0{fill:none;}
	.st1{fill:#FFFFFF;}
</style>
<rect y="-0.1" class="st0" width="53.9" height="34"/>
<g>
	<rect x="-0.1" y="32.9" class="st1" width="54" height="1"/>
	<rect x="20.6" y="10.2" class="st1" width="19.2" height="1"/>
	<rect x="14.3" y="16.6" class="st1" width="19.2" height="1"/>
	<rect x="20.6" y="23.1" class="st1" width="19.2" height="1"/>
	<path class="st1" d="M14.1,14.3l1.7-1.8l2.5,0.6l-1.2-2.3l1.3-2.3l-2.6,0.4l-1.7-2l-0.4,2.6l-2.4,1.1l2.3,1.1L14.1,14.3z
		 M14.7,10.2l0.2-1l0.7,0.8l1-0.2l-0.5,0.9l0.4,0.9l-1.1-0.2l-0.7,0.8l-0.2-1l-0.9-0.5L14.7,10.2z"/>
	<path class="st1" d="M15.9,21.8l-1.7-1.9l-0.4,2.5l-2.4,1l2.3,1.3l0.4,2.4l1.7-1.7l2.5,0.4l-1.1-2.2l1.3-2.3L15.9,21.8z M16.5,24.6
		l-1.1-0.2l-0.7,0.7l-0.2-1l-0.9-0.5l1-0.4l0.2-1.1l0.7,0.7l1-0.2l-0.5,0.9L16.5,24.6z"/>
	<path class="st1" d="M35.7,15.1l1,2.3l-1.3,2.1l2.5-0.3l1.7,2l0.4-2.6l2.4-1l-2.3-1.3l-0.1-2.6l-2,1.8L35.7,15.1z M39.2,16l0.1,1
		l0.9,0.5l-1,0.4L39,19l-0.7-0.8l-1.1,0.1l0.5-0.9l-0.4-0.9l1,0.2L39.2,16z"/>
</g>
</svg>
