<?xml version="1.0" encoding="utf-8"?>
<!-- Generator: Adobe Illustrator 21.1.0, SVG Export Plug-In . SVG Version: 6.00 Build 0)  -->
<!DOCTYPE svg PUBLIC "-//W3C//DTD SVG 1.1//EN" "http://www.w3.org/Graphics/SVG/1.1/DTD/svg11.dtd">
<svg version="1.1" id="Ebene_1" xmlns="http://www.w3.org/2000/svg" xmlns:xlink="http://www.w3.org/1999/xlink" x="0px" y="0px"
	 viewBox="0 0 53.9 34" style="enable-background:new 0 0 53.9 34;" xml:space="preserve">
<style type="text/css">
	.st0{fill:none;}
	.st1{fill:#FFFFFF;}
</style>
<rect y="-0.1" class="st0" width="53.9" height="34"/>
<g>
	<rect x="-0.1" y="32.9" class="st1" width="54" height="1"/>
	<rect x="14" y="10.2" class="st1" width="19.3" height="1"/>
	<rect x="20.3" y="16.6" class="st1" width="19.3" height="1"/>
	<rect x="14" y="23.1" class="st1" width="19.3" height="1"/>
	<path class="st1" d="M35.5,12.9l2.5-0.4l1.9,1.9l0.3-2.6l2.3-1.1l-2.3-1.1L39.8,7l-1.8,1.8l-2.4-0.3l1.1,2.1L35.5,12.9z M37.3,9.7
		l1,0.1l0.8-0.8l0.2,1.1l0.9,0.5l-0.9,0.5l-0.1,1l-0.7-0.7l-1.1,0.2l0.5-1L37.3,9.7z"/>
	<path class="st1" d="M38.1,25.4l1.8,1.7l0.3-2.5l2.3-1.2l-2.3-1L39.8,20L38,21.8l-2.4-0.4l1.1,2.3l-1.1,2.3L38.1,25.4z M37.3,22.7
		l1,0.2l0.8-0.8l0.2,1.1l0.9,0.4L39.3,24l-0.1,1.1l-0.8-0.7l-1.1,0.2l0.5-0.9L37.3,22.7z"/>
	<path class="st1" d="M14.4,21.3l1.6-2l2.5,0.3l-1.3-2.1l1-2.4l-2.4,0.6l-1.8-1.7l-0.3,2.5l-2.3,1.3l2.4,1L14.4,21.3z M14.6,17
		l0.1-1.1l0.8,0.7l1-0.2l-0.4,1l0.5,0.8l-1.1-0.1L14.9,19l-0.2-1l-1-0.4L14.6,17z"/>
</g>
</svg>
