<?xml version="1.0" encoding="utf-8"?>
<!-- Generator: Adobe Illustrator 21.1.0, SVG Export Plug-In . SVG Version: 6.00 Build 0)  -->
<!DOCTYPE svg PUBLIC "-//W3C//DTD SVG 1.1//EN" "http://www.w3.org/Graphics/SVG/1.1/DTD/svg11.dtd">
<svg version="1.1" id="Ebene_1" xmlns="http://www.w3.org/2000/svg" xmlns:xlink="http://www.w3.org/1999/xlink" x="0px" y="0px"
	 viewBox="0 0 53.9 34" style="enable-background:new 0 0 53.9 34;" xml:space="preserve">
<style type="text/css">
	.st0{fill:none;}
	.st1{fill:#FFFFFF;}
</style>
<rect y="-0.1" class="st0" width="53.9" height="34"/>
<g>
	<path class="st1" d="M50.3,32.9v-4.2h-1.2c-0.2-0.2-0.5-0.5-1.1-0.7l-0.1-1.1c0-0.3,0.1-0.6,0.2-1c0.1-0.5,0.3-1.2-0.3-1.4
		c-0.2-0.1-0.5,0-0.9,0.1c-0.8,0.2-2.4,0.7-4.2,0.3c-2.6-0.6-6.3-0.6-6.7-0.4c-0.5,0.2-0.3,0.8-0.1,1.2c0.1,0.3,0.2,0.6,0.2,0.8
		c-0.2,0-0.4,0-0.6,0c-0.2,0-0.4,0-0.7,0c0-0.2,0.1-0.5,0.1-0.7c0.1-0.5,0.2-0.9,0-1.2l-0.2-0.2h-0.2c-0.2,0-0.4,0-0.8,0.1
		c-0.8,0.2-2.3,0.6-4.1,0.3V5.4H4.4v27.5h-4.5v1h54v-1H50.3z M49.3,32.9H21.5v-3.2h2.9h24.9V32.9z M22.6,24.6
		c-0.5,0.2-0.3,0.8-0.1,1.2c0.1,0.3,0.3,0.7,0.3,1c0,0.2-0.1,1.1-0.2,1.5c-0.4,0.2-0.6,0.3-0.7,0.4h-0.3v-5.8h7v1.9
		C26,24.4,23,24.4,22.6,24.6z M21.5,17.2h7v4.7h-7V17.2z M28.5,16.2h-7v-4.6h7V16.2z M20.5,28.7h-7.2V6.4h7.2V28.7z M13.3,29.7h7.2
		v3.2h-7.2V29.7z M36.6,25.5c1,0,3.6,0,5.7,0.4c2.1,0.5,3.9,0,4.7-0.3c0,0,0,0.1,0,0.1c-0.1,0.3-0.2,0.8-0.2,1.3l0.1,0.6
		c-1.8-0.5-4.8-0.9-10-1C36.9,26.2,36.7,25.8,36.6,25.5z M47.2,28.7H24.4h-0.3c1.7-0.5,5-1.1,11.2-1.1
		C42.5,27.6,45.7,28.2,47.2,28.7z M33.8,25.6C33.8,25.6,33.8,25.7,33.8,25.6c-0.1,0.3-0.1,0.7-0.2,1c-5.4,0.1-8.4,0.7-10.1,1.2
		c0.1-0.4,0.1-0.8,0.1-1c0-0.5-0.2-1-0.3-1.4c1,0,3.6,0,5.7,0.4C31.2,26.4,32.9,25.9,33.8,25.6z M28.5,10.6h-7V6.4h7V10.6z
		 M12.3,6.4v22.3H5.4V6.4H12.3z M5.4,29.7h6.9v3.2H5.4V29.7z"/>
	<rect x="8.4" y="31.1" class="st1" width="1" height="0.7"/>
	<rect x="16.4" y="31.1" class="st1" width="1" height="0.7"/>
	<rect x="10.5" y="18.5" class="st1" width="1" height="0.7"/>
	<rect x="18.5" y="18.5" class="st1" width="1" height="0.7"/>
</g>
</svg>
