<?xml version="1.0" encoding="utf-8"?>
<!-- Generator: Adobe Illustrator 21.1.0, SVG Export Plug-In . SVG Version: 6.00 Build 0)  -->
<!DOCTYPE svg PUBLIC "-//W3C//DTD SVG 1.1//EN" "http://www.w3.org/Graphics/SVG/1.1/DTD/svg11.dtd">
<svg version="1.1" id="Ebene_1" xmlns="http://www.w3.org/2000/svg" xmlns:xlink="http://www.w3.org/1999/xlink" x="0px" y="0px"
	 viewBox="0 0 53.9 34" style="enable-background:new 0 0 53.9 34;" xml:space="preserve">
<style type="text/css">
	.st0{fill:none;}
	.st1{fill:#FFFFFF;}
</style>
<rect y="-0.1" class="st0" width="53.9" height="34"/>
<path class="st1" d="M39.4,32.9V22.6h3.1v-1h-6.3v-3h-8.3v3.1h-2.2v-3.1h-8.4v3h-6.2v1h3v10.3H-0.2v1h54v-1H39.4z M38.4,22.6v10.3
	h-2.2V22.6H38.4z M35.2,27.1c-0.4,0-1.6,0.2-3,0.2c-1.3,0-2.7-0.1-3.3-0.2v-1.3h6.3V27.1z M28.9,28.1c0.6,0.1,2,0.2,3.3,0.2
	c1.3,0,2.5-0.1,3-0.2v4.8h-6.3V28.1z M35.2,19.6v5.2h-6.3v-5.2H35.2z M27.9,22.7v10.2h-2.2V22.7H27.9z M24.7,27.1
	c-0.2,0-1.6,0.2-3.1,0.2c-1.3,0-2.7-0.1-3.3-0.2v-1.3h6.4V27.1z M18.3,28.1c0.6,0.1,2,0.2,3.3,0.2c1.4,0,2.7-0.1,3.1-0.2v4.8h-6.4
	V28.1z M24.7,19.6v5.2h-6.4v-5.2H24.7z M15.1,22.6h2.2v10.3h-2.2V22.6z"/>
</svg>
