<?xml version="1.0" encoding="utf-8"?>
<!-- Generator: Adobe Illustrator 21.1.0, SVG Export Plug-In . SVG Version: 6.00 Build 0)  -->
<!DOCTYPE svg PUBLIC "-//W3C//DTD SVG 1.1//EN" "http://www.w3.org/Graphics/SVG/1.1/DTD/svg11.dtd">
<svg version="1.1" id="Ebene_1" xmlns="http://www.w3.org/2000/svg" xmlns:xlink="http://www.w3.org/1999/xlink" x="0px" y="0px"
	 viewBox="0 0 53.9 34" style="enable-background:new 0 0 53.9 34;" xml:space="preserve">
<style type="text/css">
	.st0{fill:none;}
	.st1{fill:#FFFFFF;}
</style>
<rect y="-0.1" class="st0" width="53.9" height="34"/>
<g>
	<path class="st1" d="M39.4,32.9V22.8h3.1v-1h-6.3v-3.1h-8.3v3.1h-2.2v-3.1h-2.8c0.1-0.4,0.1-0.6,0.1-0.6v-0.2h-8.6l0,0.3
		c0,0,0.2,2.5,2.1,3.7h-2.1l0.4-0.9l-2.9-2.4c-0.3-0.9-1.2-3.2-1.5-3.6c-0.4-0.7-1.4-1.1-2.3-1.2c-0.7-0.1-1.1,0-1.5,0.1l-0.1,0
		l-4.1,3.3l-1.1,5.2l1.9,0.6l1.3-3.8l0.6-0.5c-0.2,1.3-0.6,3-0.6,3.3c0,0.4,0.2,1.2,0.3,1.5l-1.2,4.4l-2.8,5.1h-1.1v1h54v-1H39.4z
		 M38.4,22.8v10.1h-2.2V22.8H38.4z M35.2,27.2c-0.4,0-1.6,0.2-3,0.2c-1.3,0-2.7-0.1-3.3-0.2V26h6.3V27.2z M28.9,28.2
		c0.6,0.1,2,0.2,3.3,0.2c1.3,0,2.5-0.1,3-0.2v4.7h-6.3V28.2z M35.2,19.7V25h-6.3v-5.3H35.2z M27.9,22.8v10.1h-2.2V22.8H27.9z
		 M17.3,32.9h-2.2V22.8h2.2V32.9z M24.7,27.2c-0.2,0-1.6,0.2-3.1,0.2c-1.3,0-2.7-0.1-3.3-0.2V26h6.4V27.2z M18.3,28.2
		c0.6,0.1,2,0.2,3.3,0.2c1.4,0,2.7-0.1,3.1-0.2v4.7h-6.4V28.2z M24.7,25h-6.4v-5.3h6.4V25z M14.9,18.4h7.5c0,0.1,0,0.2-0.1,0.4h-5.1
		v3C15.5,21,15,19.1,14.9,18.4z M14.1,22.8v10.1h-1.2l-0.6-5.7L12.3,27c-1-1.6-2.5-4.1-2.8-4.6c0-0.4,0.2-1.4,0.3-2.4l0.4,0.8
		l2.2,1.1h-1.3v1H14.1z M4.6,28.3l1.3-4.8l0-0.1c-0.1-0.4-0.3-1.1-0.3-1.4c0-0.3,0.4-2.5,0.8-4.5L6.6,16l-3,2.5l-1.1,3.2l-0.1,0
		l0.9-4l3.6-2.9c0.3-0.1,0.6-0.1,1.1-0.1c0.6,0.1,1.4,0.4,1.6,0.8c0.2,0.2,0.9,2,1.4,3.5l0,0.1l2.5,2l0,0.1l-2.6-1.3l-1.8-3.2
		l-0.2,1.5c-0.5,4-0.5,4.1-0.5,4.2c0,0.2,0,0.2,2.9,5l0.5,5.3h-0.7l-0.9-4.1l-2.6-4.5L6,28.9l-3.1,3.8l-0.6-0.2L4.6,28.3z M6.8,29.4
		l1-2.9l1.4,2.4l0.9,4H3.9L6.8,29.4z"/>
	<path class="st1" d="M9.5,13.9c1.3,0,2.3-1,2.3-2.3c0-1.3-1-2.3-2.3-2.3c-1.3,0-2.3,1-2.3,2.3C7.2,12.9,8.3,13.9,9.5,13.9z
		 M9.5,10.3c0.7,0,1.3,0.6,1.3,1.3s-0.6,1.3-1.3,1.3s-1.3-0.6-1.3-1.3S8.8,10.3,9.5,10.3z"/>
	<path class="st1" d="M20.6,15.2c0,0.7-0.4,1.2-0.4,1.2c-0.1,0.1-0.1,0.3,0,0.4c0,0,0.1,0.1,0.2,0.1c0.1,0,0.1,0,0.2-0.1
		c0,0,0.6-0.7,0.6-1.6c0-0.9-0.6-1.5-0.7-1.6c-0.1-0.1-0.3-0.1-0.4,0s-0.1,0.3,0,0.4C20.1,14,20.6,14.5,20.6,15.2z"/>
	<path class="st1" d="M17.3,17c0.1,0,0.1,0,0.2-0.1c0.1-0.1,0.1-0.3,0-0.4c0,0-0.5-0.5-0.5-1.2c0-0.7,0.4-1.2,0.4-1.2
		c0.1-0.1,0.1-0.3,0-0.4c-0.1-0.1-0.3-0.1-0.4,0c0,0-0.6,0.7-0.6,1.6c0,0.9,0.6,1.5,0.7,1.6C17.2,16.9,17.3,17,17.3,17z"/>
	<path class="st1" d="M18.6,17.1c0,0.1,0.1,0.1,0.2,0.1c0,0,0.1,0,0.1,0c0.1-0.1,0.2-0.2,0.1-0.3c0,0-0.5-1.2,0-1.7
		c0.7-0.8-0.1-2.3-0.2-2.4c-0.1-0.1-0.2-0.2-0.3-0.1c-0.1,0.1-0.2,0.2-0.1,0.3c0.2,0.3,0.6,1.4,0.2,1.8
		C17.9,15.7,18.6,17.1,18.6,17.1z"/>
</g>
</svg>
