<?xml version="1.0" encoding="utf-8"?>
<!-- Generator: Adobe Illustrator 21.1.0, SVG Export Plug-In . SVG Version: 6.00 Build 0)  -->
<!DOCTYPE svg PUBLIC "-//W3C//DTD SVG 1.1//EN" "http://www.w3.org/Graphics/SVG/1.1/DTD/svg11.dtd">
<svg version="1.1" id="Ebene_1" xmlns="http://www.w3.org/2000/svg" xmlns:xlink="http://www.w3.org/1999/xlink" x="0px" y="0px"
	 viewBox="0 0 53.9 34" style="enable-background:new 0 0 53.9 34;" xml:space="preserve">
<style type="text/css">
	.st0{fill:none;}
	.st1{fill:#FFFFFF;}
</style>
<rect y="-0.1" class="st0" width="53.9" height="34"/>
<g>
	<path class="st1" d="M46.6,32.9V5.4h-9v22.1H23.3V26h9.5V16h-20v2.6l-0.2-0.1c-0.3-0.9-1.2-3.2-1.5-3.6c-0.4-0.7-1.4-1.1-2.2-1.2
		c-0.6-0.1-1.1,0-1.6,0.1l-4.1,3.3L2,22.4l1.9,0.6l1.3-3.8l0.6-0.5c-0.2,1.3-0.6,3-0.6,3.3c0,0.4,0.2,1.2,0.3,1.5l-1.2,4.4l-2.8,5.1
		h-1.8v1h54v-1H46.6z M45.6,16.2h-7v-4.6h7V16.2z M45.6,17.2v4.7h-7v-4.7H45.6z M45.6,22.9v4.6h-7v-4.6H45.6z M45.6,28.5v4.4h-7
		v-4.4H45.6z M45.6,6.4v4.2h-7V6.4H45.6z M37.6,32.9H24.4v-4.4h13.2V32.9z M10.5,31l0.4,1.9h-0.4V31z M13.3,28.5h10.2v4.4h-9.7
		L13.3,28.5z M22.3,27.5h-9.2l0-0.3L13.1,27c-1-1.6-2.5-4.1-2.8-4.6c0-0.4,0.2-1.4,0.3-2.4l0.4,0.8l1.9,0.9V26h9.5V27.5z M13.8,19.4
		V17h18v8h-18v-2.9l0.9,0.5l0.8-1.7L13.8,19.4L13.8,19.4z M5.4,28.3l1.3-4.8l0-0.1c-0.1-0.4-0.3-1.1-0.3-1.4c0-0.3,0.4-2.5,0.8-4.5
		L7.4,16l-3,2.5l-1.1,3.2l-0.1,0l0.9-4l3.6-2.9c0.3-0.1,0.7-0.1,1.1-0.1c0.6,0.1,1.4,0.4,1.6,0.8c0.2,0.2,0.9,2,1.4,3.5l0,0.1l2.5,2
		l0,0.1l-2.6-1.3l-1.8-3.2l-0.2,1.5c-0.5,4-0.5,4.1-0.5,4.2c0,0.2,0,0.2,2.9,5l0.5,5.3h-0.7L11,28.6l-2.6-4.5l-1.6,4.7l-3.1,3.8
		l-0.6-0.2L5.4,28.3z M7.6,29.4l1-2.9L9.5,28v4.9H4.7L7.6,29.4z"/>
	<rect x="16.2" y="30.4" class="st1" width="1" height="0.7"/>
	<rect x="41.7" y="30.4" class="st1" width="1" height="0.7"/>
	<rect x="30.6" y="30.4" class="st1" width="1" height="0.7"/>
	<path class="st1" d="M10.3,13.9c0.8,0,1.5-0.4,1.9-1h22.2v-6H10.9v2.5c-0.2-0.1-0.4-0.1-0.6-0.1c-1.3,0-2.3,1-2.3,2.3
		C8,12.9,9.1,13.9,10.3,13.9z M11.9,7.9h21.5v4H12.6c0-0.1,0-0.2,0-0.3c0-0.6-0.3-1.2-0.7-1.6V7.9z M10.3,10.3
		c0.7,0,1.3,0.6,1.3,1.3s-0.6,1.3-1.3,1.3S9,12.3,9,11.6S9.6,10.3,10.3,10.3z"/>
</g>
</svg>
