<?xml version="1.0" encoding="utf-8"?>
<!-- Generator: Adobe Illustrator 21.1.0, SVG Export Plug-In . SVG Version: 6.00 Build 0)  -->
<!DOCTYPE svg PUBLIC "-//W3C//DTD SVG 1.1//EN" "http://www.w3.org/Graphics/SVG/1.1/DTD/svg11.dtd">
<svg version="1.1" id="Ebene_1" xmlns="http://www.w3.org/2000/svg" xmlns:xlink="http://www.w3.org/1999/xlink" x="0px" y="0px"
	 viewBox="0 0 53.9 34" style="enable-background:new 0 0 53.9 34;" xml:space="preserve">
<style type="text/css">
	.st0{fill:none;}
	.st1{fill:#FFFFFF;}
</style>
<rect y="-0.1" class="st0" width="53.9" height="34"/>
<g>
	<path class="st1" d="M46.6,32.9V5.4h-9v22.1H23.3v-1.6h9.4v-10H12.8v10h9.5v1.6H9.5v5.4h-9.6v1h54v-1H46.6z M13.8,16.9h17.9v8H13.8
		V16.9z M45.6,16.2h-7v-4.6h7V16.2z M45.6,17.2v4.7h-7v-4.7H45.6z M45.6,22.9v4.6h-7v-4.6H45.6z M45.6,28.5v4.4h-7v-4.4H45.6z
		 M45.6,6.4v4.2h-7V6.4H45.6z M37.6,32.9H24.4v-4.4h13.2V32.9z M10.5,28.5h12.9v4.4H10.5V28.5z"/>
	<path class="st1" d="M34.4,6.9H10.9v6h23.5V6.9z M33.4,11.9H11.9v-4h21.5V11.9z"/>
	<rect x="16.2" y="30.4" class="st1" width="1" height="0.7"/>
	<rect x="41.7" y="30.4" class="st1" width="1" height="0.7"/>
	<rect x="30.6" y="30.4" class="st1" width="1" height="0.7"/>
</g>
</svg>
